solid OpenSCAD_Model
  facet normal 1 -0 0
    outer loop
      vertex 12 98 12
      vertex 12 107 2
      vertex 12 107 12
    endloop
  endfacet
  facet normal 1 0 0
    outer loop
      vertex 12 107 2
      vertex 12 98 12
      vertex 12 102.7 0
    endloop
  endfacet
  facet normal 1 0 0
    outer loop
      vertex 12 102.7 0
      vertex 12 98 12
      vertex 12 100 0
    endloop
  endfacet
  facet normal 1 0 0
    outer loop
      vertex 12 98 -12
      vertex 12 100 0
      vertex 12 98 12
    endloop
  endfacet
  facet normal 1 0 0
    outer loop
      vertex 12 100 0
      vertex 12 98 -12
      vertex 12 100 -12
    endloop
  endfacet
  facet normal 1 -0 0
    outer loop
      vertex 12 107 2
      vertex 12 112 -12
      vertex 12 112 2
    endloop
  endfacet
  facet normal 1 -0 0
    outer loop
      vertex 12 102.7 0
      vertex 12 112 -12
      vertex 12 107 2
    endloop
  endfacet
  facet normal 1 0 0
    outer loop
      vertex 12 112 -12
      vertex 12 102.7 0
      vertex 12 102.7 -12
    endloop
  endfacet
  facet normal 0 0 1
    outer loop
      vertex 4 98 12
      vertex 12 107 12
      vertex 7 112 12
    endloop
  endfacet
  facet normal 0 0 1
    outer loop
      vertex 12 107 12
      vertex 6.69848 98 12
      vertex 12 98 12
    endloop
  endfacet
  facet normal 0 0 1
    outer loop
      vertex 12 107 12
      vertex 4 98 12
      vertex 6.69848 98 12
    endloop
  endfacet
  facet normal 0 0 1
    outer loop
      vertex -2 106.698 12
      vertex 7 112 12
      vertex -2 112 12
    endloop
  endfacet
  facet normal 0 0 1
    outer loop
      vertex -2 104 12
      vertex 7 112 12
      vertex -2 106.698 12
    endloop
  endfacet
  facet normal 0 0 1
    outer loop
      vertex 7 112 12
      vertex -2 104 12
      vertex 4 98 12
    endloop
  endfacet
  facet normal 0 0 -1
    outer loop
      vertex 6.69848 98 -12
      vertex 12 100 -12
      vertex 12 98 -12
    endloop
  endfacet
  facet normal 0 0 -1
    outer loop
      vertex 6.69848 98 -12
      vertex 4.94975 100 -12
      vertex 12 100 -12
    endloop
  endfacet
  facet normal 0 0 -1
    outer loop
      vertex 6.69848 98 -12
      vertex 4.91421 99.9645 -12
      vertex 4.94975 100 -12
    endloop
  endfacet
  facet normal 0 0 -1
    outer loop
      vertex 4 98 -12
      vertex 4.91421 99.9645 -12
      vertex 6.69848 98 -12
    endloop
  endfacet
  facet normal 0 -0 -1
    outer loop
      vertex 4.82843 100 -12
      vertex 4.91421 99.9645 -12
      vertex 4 98 -12
    endloop
  endfacet
  facet normal 0 0 -1
    outer loop
      vertex 4.91421 99.9645 -12
      vertex 4.82843 100 -12
      vertex 4.87868 100 -12
    endloop
  endfacet
  facet normal 0 0 -1
    outer loop
      vertex 4 98 -12
      vertex 0 104.828 -12
      vertex 4.82843 100 -12
    endloop
  endfacet
  facet normal 0 0 -1
    outer loop
      vertex 0 104.828 -12
      vertex -0.0355339 104.914 -12
      vertex 0 104.879 -12
    endloop
  endfacet
  facet normal -0 0 -1
    outer loop
      vertex 0 104.828 -12
      vertex -2 104 -12
      vertex -0.0355339 104.914 -12
    endloop
  endfacet
  facet normal 0 0 -1
    outer loop
      vertex -2 104 -12
      vertex 0 104.828 -12
      vertex 4 98 -12
    endloop
  endfacet
  facet normal 0 0 -1
    outer loop
      vertex -2 106.698 -12
      vertex 0 104.95 -12
      vertex -0.0355339 104.914 -12
    endloop
  endfacet
  facet normal 0 0 -1
    outer loop
      vertex -2 106.698 -12
      vertex -0.0355339 104.914 -12
      vertex -2 104 -12
    endloop
  endfacet
  facet normal 0 0 -1
    outer loop
      vertex 0 104.95 -12
      vertex -2 106.698 -12
      vertex 0 112 -12
    endloop
  endfacet
  facet normal -0 0 -1
    outer loop
      vertex 0 112 -12
      vertex -2 106.698 -12
      vertex -2 112 -12
    endloop
  endfacet
  facet normal 0 0 -1
    outer loop
      vertex 12 102.7 -12
      vertex 8.38909 102.732 -12
      vertex 12 112 -12
    endloop
  endfacet
  facet normal 0 -0 -1
    outer loop
      vertex 8.38909 102.732 -12
      vertex 12 102.7 -12
      vertex 8.35685 102.7 -12
    endloop
  endfacet
  facet normal 0 0 -1
    outer loop
      vertex 2.73223 108.389 -12
      vertex 12 112 -12
      vertex 8.38909 102.732 -12
    endloop
  endfacet
  facet normal 0 0 -1
    outer loop
      vertex 2.73223 108.389 -12
      vertex 2.7 112 -12
      vertex 12 112 -12
    endloop
  endfacet
  facet normal 0 0 -1
    outer loop
      vertex 2.7 112 -12
      vertex 2.73223 108.389 -12
      vertex 2.7 108.357 -12
    endloop
  endfacet
  facet normal -1 0 0
    outer loop
      vertex -2 104 -12
      vertex -2 106.698 12
      vertex -2 106.698 -12
    endloop
  endfacet
  facet normal -1 -0 0
    outer loop
      vertex -2 106.698 12
      vertex -2 104 -12
      vertex -2 104 12
    endloop
  endfacet
  facet normal -1 0 0
    outer loop
      vertex -2 106.698 -12
      vertex -2 112 12
      vertex -2 112 -12
    endloop
  endfacet
  facet normal -1 -0 0
    outer loop
      vertex -2 112 12
      vertex -2 106.698 -12
      vertex -2 106.698 12
    endloop
  endfacet
  facet normal 0 1 -0
    outer loop
      vertex 12 112 -12
      vertex 7 112 2
      vertex 12 112 2
    endloop
  endfacet
  facet normal 0 1 0
    outer loop
      vertex 7 112 2
      vertex 12 112 -12
      vertex 2.7 112 0
    endloop
  endfacet
  facet normal 0 1 0
    outer loop
      vertex 2.7 112 0
      vertex 12 112 -12
      vertex 2.7 112 -12
    endloop
  endfacet
  facet normal 0 1 -0
    outer loop
      vertex 7 112 2
      vertex -2 112 12
      vertex 7 112 12
    endloop
  endfacet
  facet normal 0 1 -0
    outer loop
      vertex 2.7 112 0
      vertex -2 112 12
      vertex 7 112 2
    endloop
  endfacet
  facet normal 0 1 -0
    outer loop
      vertex 0 112 0
      vertex -2 112 12
      vertex 2.7 112 0
    endloop
  endfacet
  facet normal 0 1 0
    outer loop
      vertex -2 112 -12
      vertex 0 112 0
      vertex 0 112 -12
    endloop
  endfacet
  facet normal 0 1 0
    outer loop
      vertex 0 112 0
      vertex -2 112 -12
      vertex -2 112 12
    endloop
  endfacet
  facet normal 0 -1 0
    outer loop
      vertex 4 98 -12
      vertex 6.69848 98 12
      vertex 4 98 12
    endloop
  endfacet
  facet normal 0 -1 -0
    outer loop
      vertex 6.69848 98 12
      vertex 4 98 -12
      vertex 6.69848 98 -12
    endloop
  endfacet
  facet normal 0 -1 0
    outer loop
      vertex 6.69848 98 -12
      vertex 12 98 12
      vertex 6.69848 98 12
    endloop
  endfacet
  facet normal 0 -1 -0
    outer loop
      vertex 12 98 12
      vertex 6.69848 98 -12
      vertex 12 98 -12
    endloop
  endfacet
  facet normal 0 0 -1
    outer loop
      vertex 12 100 0
      vertex 8.35685 102.7 0
      vertex 12 102.7 0
    endloop
  endfacet
  facet normal 0 -0 -1
    outer loop
      vertex 8.35685 102.7 0
      vertex 12 100 0
      vertex 4.94975 100 0
    endloop
  endfacet
  facet normal 0 0 -1
    outer loop
      vertex 4.87868 100 0
      vertex 8.35685 102.7 0
      vertex 4.94975 100 0
    endloop
  endfacet
  facet normal 0 0 -1
    outer loop
      vertex 4.87868 100 0
      vertex 4.94975 100 0
      vertex 4.91421 99.9645 0
    endloop
  endfacet
  facet normal 0 0 -1
    outer loop
      vertex 4.82843 100 0
      vertex 8.35685 102.7 0
      vertex 4.87868 100 0
    endloop
  endfacet
  facet normal 0 0 -1
    outer loop
      vertex 2.7 108.357 0
      vertex 8.35685 102.7 0
      vertex 4.82843 100 0
    endloop
  endfacet
  facet normal 0 0 -1
    outer loop
      vertex 8.35685 102.7 0
      vertex 2.7 108.357 0
      vertex 8.38909 102.732 0
    endloop
  endfacet
  facet normal 0 0 -1
    outer loop
      vertex 8.38909 102.732 0
      vertex 2.7 108.357 0
      vertex 2.73223 108.389 0
    endloop
  endfacet
  facet normal 0 0 -1
    outer loop
      vertex 0 104.828 0
      vertex 2.7 108.357 0
      vertex 4.82843 100 0
    endloop
  endfacet
  facet normal 0 0 -1
    outer loop
      vertex 0 104.879 0
      vertex 2.7 108.357 0
      vertex 0 104.828 0
    endloop
  endfacet
  facet normal 0 0 -1
    outer loop
      vertex 0 104.95 0
      vertex 2.7 108.357 0
      vertex 0 104.879 0
    endloop
  endfacet
  facet normal 0 0 -1
    outer loop
      vertex 0 112 0
      vertex 2.7 108.357 0
      vertex 0 104.95 0
    endloop
  endfacet
  facet normal 0 0 -1
    outer loop
      vertex 2.7 108.357 0
      vertex 0 112 0
      vertex 2.7 112 0
    endloop
  endfacet
  facet normal 0 0 -1
    outer loop
      vertex 0 104.879 0
      vertex -0.0355339 104.914 0
      vertex 0 104.95 0
    endloop
  endfacet
  facet normal 0 -1 0
    outer loop
      vertex 8.35685 102.7 -12
      vertex 12 102.7 0
      vertex 8.35685 102.7 0
    endloop
  endfacet
  facet normal 0 -1 -0
    outer loop
      vertex 12 102.7 0
      vertex 8.35685 102.7 -12
      vertex 12 102.7 -12
    endloop
  endfacet
  facet normal 0 1 -0
    outer loop
      vertex 12 100 -12
      vertex 4.94975 100 0
      vertex 12 100 0
    endloop
  endfacet
  facet normal 0 1 0
    outer loop
      vertex 4.94975 100 0
      vertex 12 100 -12
      vertex 4.94975 100 -12
    endloop
  endfacet
  facet normal 0 1 -0
    outer loop
      vertex 4.87868 100 -12
      vertex 4.82843 100 0
      vertex 4.87868 100 0
    endloop
  endfacet
  facet normal 0 1 0
    outer loop
      vertex 4.82843 100 0
      vertex 4.87868 100 -12
      vertex 4.82843 100 -12
    endloop
  endfacet
  facet normal -1 0 0
    outer loop
      vertex 2.7 108.357 -12
      vertex 2.7 112 0
      vertex 2.7 112 -12
    endloop
  endfacet
  facet normal -1 -0 0
    outer loop
      vertex 2.7 112 0
      vertex 2.7 108.357 -12
      vertex 2.7 108.357 0
    endloop
  endfacet
  facet normal 1 -0 0
    outer loop
      vertex 0 104.95 0
      vertex 0 112 -12
      vertex 0 112 0
    endloop
  endfacet
  facet normal 1 0 0
    outer loop
      vertex 0 112 -12
      vertex 0 104.95 0
      vertex 0 104.95 -12
    endloop
  endfacet
  facet normal 1 -0 0
    outer loop
      vertex 0 104.828 0
      vertex 0 104.879 -12
      vertex 0 104.879 0
    endloop
  endfacet
  facet normal 1 0 0
    outer loop
      vertex 0 104.879 -12
      vertex 0 104.828 0
      vertex 0 104.828 -12
    endloop
  endfacet
  facet normal 0.707107 0.707107 0
    outer loop
      vertex 12 107 12
      vertex 7 112 2
      vertex 7 112 12
    endloop
  endfacet
  facet normal 0.707107 0.707107 0
    outer loop
      vertex 7 112 2
      vertex 12 107 12
      vertex 12 107 2
    endloop
  endfacet
  facet normal 0 -0 1
    outer loop
      vertex 12 107 2
      vertex 12 112 2
      vertex 7 112 2
    endloop
  endfacet
  facet normal 0.701734 0.712439 0
    outer loop
      vertex 0 104.879 0
      vertex -0.0355339 104.914 -12
      vertex -0.0355339 104.914 0
    endloop
  endfacet
  facet normal 0.701734 0.712439 0
    outer loop
      vertex -0.0355339 104.914 -12
      vertex 0 104.879 0
      vertex 0 104.879 -12
    endloop
  endfacet
  facet normal 0.706808 0.707405 0
    outer loop
      vertex 4.91421 99.9645 0
      vertex 4.87868 100 -12
      vertex 4.87868 100 0
    endloop
  endfacet
  facet normal 0.706808 0.707405 0
    outer loop
      vertex 4.87868 100 -12
      vertex 4.91421 99.9645 0
      vertex 4.91421 99.9645 -12
    endloop
  endfacet
  facet normal 0.711699 -0.702485 0
    outer loop
      vertex -0.0355339 104.914 -12
      vertex 0 104.95 0
      vertex -0.0355339 104.914 0
    endloop
  endfacet
  facet normal 0.711699 -0.702485 0
    outer loop
      vertex 0 104.95 0
      vertex -0.0355339 104.914 -12
      vertex 0 104.95 -12
    endloop
  endfacet
  facet normal -0.706709 0.707505 0
    outer loop
      vertex 4.91421 99.9645 -12
      vertex 4.94975 100 0
      vertex 4.94975 100 -12
    endloop
  endfacet
  facet normal -0.706709 0.707505 0
    outer loop
      vertex 4.94975 100 0
      vertex 4.91421 99.9645 -12
      vertex 4.91421 99.9645 0
    endloop
  endfacet
  facet normal 0.70457 -0.709634 0
    outer loop
      vertex 2.7 108.357 -12
      vertex 2.73223 108.389 0
      vertex 2.7 108.357 0
    endloop
  endfacet
  facet normal 0.70457 -0.709634 0
    outer loop
      vertex 2.73223 108.389 0
      vertex 2.7 108.357 -12
      vertex 2.73223 108.389 -12
    endloop
  endfacet
  facet normal -0.70446 0.709744 0
    outer loop
      vertex 8.35685 102.7 -12
      vertex 8.38909 102.732 0
      vertex 8.38909 102.732 -12
    endloop
  endfacet
  facet normal -0.70446 0.709744 0
    outer loop
      vertex 8.38909 102.732 0
      vertex 8.35685 102.7 -12
      vertex 8.35685 102.7 0
    endloop
  endfacet
  facet normal -0.707116 -0.707098 0
    outer loop
      vertex 2.73223 108.389 -12
      vertex 8.38909 102.732 0
      vertex 2.73223 108.389 0
    endloop
  endfacet
  facet normal -0.707116 -0.707098 -0
    outer loop
      vertex 8.38909 102.732 0
      vertex 2.73223 108.389 -12
      vertex 8.38909 102.732 -12
    endloop
  endfacet
  facet normal 0.707075 0.707138 0
    outer loop
      vertex 4.82843 100 0
      vertex 0 104.828 -12
      vertex 0 104.828 0
    endloop
  endfacet
  facet normal 0.707075 0.707138 0
    outer loop
      vertex 0 104.828 -12
      vertex 4.82843 100 0
      vertex 4.82843 100 -12
    endloop
  endfacet
  facet normal -0.707107 -0.707107 0
    outer loop
      vertex 4 98 -12
      vertex -2 104 12
      vertex -2 104 -12
    endloop
  endfacet
  facet normal -0.707107 -0.707107 0
    outer loop
      vertex -2 104 12
      vertex 4 98 -12
      vertex 4 98 12
    endloop
  endfacet
endsolid OpenSCAD_Model
