solid OpenSCAD_Model
  facet normal 1 -0 0
    outer loop
      vertex 12 -2 13
      vertex 12 0 2
      vertex 12 0 13
    endloop
  endfacet
  facet normal 1 0 0
    outer loop
      vertex 12 0 2
      vertex 12 -2 13
      vertex 12 0 0
    endloop
  endfacet
  facet normal 1 0 0
    outer loop
      vertex 12 -2 -13
      vertex 12 0 0
      vertex 12 -2 13
    endloop
  endfacet
  facet normal 1 0 0
    outer loop
      vertex 12 0 0
      vertex 12 -2 -13
      vertex 12 0 -13
    endloop
  endfacet
  facet normal 1 0 0
    outer loop
      vertex 12 12 2
      vertex 12 2.7 0
      vertex 12 12 -13
    endloop
  endfacet
  facet normal 1 -0 0
    outer loop
      vertex 12 0 2
      vertex 12 2.7 0
      vertex 12 12 2
    endloop
  endfacet
  facet normal 1 0 0
    outer loop
      vertex 12 2.7 0
      vertex 12 0 2
      vertex 12 0 0
    endloop
  endfacet
  facet normal 1 0 0
    outer loop
      vertex 12 12 -13
      vertex 12 2.7 0
      vertex 12 2.7 -13
    endloop
  endfacet
  facet normal 0 0 1
    outer loop
      vertex 0 12 13
      vertex -2 12 13
      vertex 0 0 13
    endloop
  endfacet
  facet normal -0 0 1
    outer loop
      vertex 0 0 13
      vertex 12 -2 13
      vertex 12 0 13
    endloop
  endfacet
  facet normal 0 0 1
    outer loop
      vertex 0 0 13
      vertex -2 -2 13
      vertex 12 -2 13
    endloop
  endfacet
  facet normal 0 0 1
    outer loop
      vertex -2 -2 13
      vertex 0 0 13
      vertex -2 12 13
    endloop
  endfacet
  facet normal 0 0 -1
    outer loop
      vertex 5.42132 2.7 -13
      vertex 12 12 -13
      vertex 12 2.7 -13
    endloop
  endfacet
  facet normal 0 0 -1
    outer loop
      vertex 2.7 5.42132 -13
      vertex 12 12 -13
      vertex 5.42132 2.7 -13
    endloop
  endfacet
  facet normal -0 0 -1
    outer loop
      vertex 12 12 -13
      vertex 2.7 5.42132 -13
      vertex 2.7 12 -13
    endloop
  endfacet
  facet normal 0 0 -1
    outer loop
      vertex 12 -2 -13
      vertex 0 0 -13
      vertex 12 0 -13
    endloop
  endfacet
  facet normal 0 0 -1
    outer loop
      vertex -2 -2 -13
      vertex 0 0 -13
      vertex 12 -2 -13
    endloop
  endfacet
  facet normal 0 0 -1
    outer loop
      vertex -2 12 -13
      vertex 0 0 -13
      vertex -2 -2 -13
    endloop
  endfacet
  facet normal 0 0 -1
    outer loop
      vertex 0 0 -13
      vertex -2 12 -13
      vertex 0 12 -13
    endloop
  endfacet
  facet normal -1 0 0
    outer loop
      vertex -2 -2 -13
      vertex -2 12 13
      vertex -2 12 -13
    endloop
  endfacet
  facet normal -1 -0 0
    outer loop
      vertex -2 12 13
      vertex -2 -2 -13
      vertex -2 -2 13
    endloop
  endfacet
  facet normal 0 1 0
    outer loop
      vertex 12 12 2
      vertex 2.7 12 0
      vertex 0 12 2
    endloop
  endfacet
  facet normal 0 1 -0
    outer loop
      vertex 12 12 -13
      vertex 2.7 12 0
      vertex 12 12 2
    endloop
  endfacet
  facet normal 0 1 0
    outer loop
      vertex 2.7 12 0
      vertex 12 12 -13
      vertex 2.7 12 -13
    endloop
  endfacet
  facet normal 0 1 -0
    outer loop
      vertex 0 12 2
      vertex -2 12 13
      vertex 0 12 13
    endloop
  endfacet
  facet normal 0 1 0
    outer loop
      vertex 0 12 0
      vertex 0 12 2
      vertex 2.7 12 0
    endloop
  endfacet
  facet normal 0 1 -0
    outer loop
      vertex 0 12 0
      vertex -2 12 13
      vertex 0 12 2
    endloop
  endfacet
  facet normal 0 1 0
    outer loop
      vertex -2 12 -13
      vertex 0 12 0
      vertex 0 12 -13
    endloop
  endfacet
  facet normal 0 1 0
    outer loop
      vertex 0 12 0
      vertex -2 12 -13
      vertex -2 12 13
    endloop
  endfacet
  facet normal 0 -1 0
    outer loop
      vertex -2 -2 -13
      vertex 12 -2 13
      vertex -2 -2 13
    endloop
  endfacet
  facet normal 0 -1 -0
    outer loop
      vertex 12 -2 13
      vertex -2 -2 -13
      vertex 12 -2 -13
    endloop
  endfacet
  facet normal 0 0 -1
    outer loop
      vertex 12 0 0
      vertex 5.42132 2.7 0
      vertex 12 2.7 0
    endloop
  endfacet
  facet normal 0 0 -1
    outer loop
      vertex 0 0 0
      vertex 5.42132 2.7 0
      vertex 12 0 0
    endloop
  endfacet
  facet normal 0 0 -1
    outer loop
      vertex 0 0 0
      vertex 2.7 5.42132 0
      vertex 5.42132 2.7 0
    endloop
  endfacet
  facet normal 0 0 -1
    outer loop
      vertex 0 12 0
      vertex 2.7 5.42132 0
      vertex 0 0 0
    endloop
  endfacet
  facet normal 0 0 -1
    outer loop
      vertex 2.7 5.42132 0
      vertex 0 12 0
      vertex 2.7 12 0
    endloop
  endfacet
  facet normal 1 -0 0
    outer loop
      vertex 0 0 0
      vertex 0 12 -13
      vertex 0 12 0
    endloop
  endfacet
  facet normal 1 0 0
    outer loop
      vertex 0 12 -13
      vertex 0 0 0
      vertex 0 0 -13
    endloop
  endfacet
  facet normal 0 -1 0
    outer loop
      vertex 5.42132 2.7 -13
      vertex 12 2.7 0
      vertex 5.42132 2.7 0
    endloop
  endfacet
  facet normal 0 -1 -0
    outer loop
      vertex 12 2.7 0
      vertex 5.42132 2.7 -13
      vertex 12 2.7 -13
    endloop
  endfacet
  facet normal 0 1 -0
    outer loop
      vertex 12 0 -13
      vertex 0 0 0
      vertex 12 0 0
    endloop
  endfacet
  facet normal 0 1 0
    outer loop
      vertex 0 0 0
      vertex 12 0 -13
      vertex 0 0 -13
    endloop
  endfacet
  facet normal -1 0 0
    outer loop
      vertex 2.7 5.42132 -13
      vertex 2.7 12 0
      vertex 2.7 12 -13
    endloop
  endfacet
  facet normal -1 -0 0
    outer loop
      vertex 2.7 12 0
      vertex 2.7 5.42132 -13
      vertex 2.7 5.42132 0
    endloop
  endfacet
  facet normal -0 0 1
    outer loop
      vertex 0 12 2
      vertex 12 0 2
      vertex 12 12 2
    endloop
  endfacet
  facet normal 0 0 1
    outer loop
      vertex 12 0 2
      vertex 0 12 2
      vertex 0 0 2
    endloop
  endfacet
  facet normal 1 -0 0
    outer loop
      vertex 0 0 13
      vertex 0 12 2
      vertex 0 12 13
    endloop
  endfacet
  facet normal 1 0 0
    outer loop
      vertex 0 12 2
      vertex 0 0 13
      vertex 0 0 2
    endloop
  endfacet
  facet normal 0 1 -0
    outer loop
      vertex 12 0 2
      vertex 0 0 13
      vertex 12 0 13
    endloop
  endfacet
  facet normal 0 1 0
    outer loop
      vertex 0 0 13
      vertex 12 0 2
      vertex 0 0 2
    endloop
  endfacet
  facet normal -0.707107 -0.707107 0
    outer loop
      vertex 5.42132 2.7 -13
      vertex 2.7 5.42132 0
      vertex 2.7 5.42132 -13
    endloop
  endfacet
  facet normal -0.707107 -0.707107 0
    outer loop
      vertex 2.7 5.42132 0
      vertex 5.42132 2.7 -13
      vertex 5.42132 2.7 0
    endloop
  endfacet
endsolid OpenSCAD_Model
